<svg width="15" height="14" viewBox="0 0 15 14" fill="none" xmlns="http://www.w3.org/2000/svg">
<path d="M12.2514 0C12.8146 0 13.3548 0.217897 13.753 0.605756C14.1513 0.993616 14.375 1.51967 14.375 2.06818V11.9318C14.375 12.4803 14.1513 13.0064 13.753 13.3942C13.3548 13.7821 12.8146 14 12.2514 14H2.12358C1.56037 14 1.02023 13.7821 0.621982 13.3942C0.223734 13.0064 0 12.4803 0 11.9318V2.06818C0 1.51967 0.223734 0.993616 0.621982 0.605756C1.02023 0.217897 1.56037 0 2.12358 0H12.2514ZM13.3949 4.13827H0.980114V11.9318C0.980114 12.5465 1.49239 13.0455 2.12358 13.0455H12.2514C12.5547 13.0455 12.8455 12.9281 13.06 12.7193C13.2744 12.5104 13.3949 12.2272 13.3949 11.9318V4.13827ZM3.75645 9.22791C3.97307 9.22791 4.18081 9.31172 4.33399 9.46089C4.48716 9.61007 4.57321 9.8124 4.57321 10.0234C4.57321 10.2343 4.48716 10.4367 4.33399 10.5858C4.18081 10.735 3.97307 10.8188 3.75645 10.8188C3.53983 10.8188 3.33208 10.735 3.17891 10.5858C3.02574 10.4367 2.93969 10.2343 2.93969 10.0234C2.93969 9.8124 3.02574 9.61007 3.17891 9.46089C3.33208 9.31172 3.53983 9.22791 3.75645 9.22791ZM7.18946 9.22791C7.40608 9.22791 7.61383 9.31172 7.767 9.46089C7.92017 9.61007 8.00622 9.8124 8.00622 10.0234C8.00622 10.2343 7.92017 10.4367 7.767 10.5858C7.61383 10.735 7.40608 10.8188 7.18946 10.8188C6.97284 10.8188 6.7651 10.735 6.61192 10.5858C6.45875 10.4367 6.3727 10.2343 6.3727 10.0234C6.3727 9.8124 6.45875 9.61007 6.61192 9.46089C6.7651 9.31172 6.97284 9.22791 7.18946 9.22791ZM3.75645 6.04609C3.97307 6.04609 4.18081 6.1299 4.33399 6.27907C4.48716 6.42825 4.57321 6.63058 4.57321 6.84155C4.57321 7.05251 4.48716 7.25484 4.33399 7.40402C4.18081 7.55319 3.97307 7.637 3.75645 7.637C3.53983 7.637 3.33208 7.55319 3.17891 7.40402C3.02574 7.25484 2.93969 7.05251 2.93969 6.84155C2.93969 6.63058 3.02574 6.42825 3.17891 6.27907C3.33208 6.1299 3.53983 6.04609 3.75645 6.04609ZM7.18946 6.04609C7.40608 6.04609 7.61383 6.1299 7.767 6.27907C7.92017 6.42825 8.00622 6.63058 8.00622 6.84155C8.00622 7.05251 7.92017 7.25484 7.767 7.40402C7.61383 7.55319 7.40608 7.637 7.18946 7.637C6.97284 7.637 6.7651 7.55319 6.61192 7.40402C6.45875 7.25484 6.3727 7.05251 6.3727 6.84155C6.3727 6.63058 6.45875 6.42825 6.61192 6.27907C6.7651 6.1299 6.97284 6.04609 7.18946 6.04609ZM10.6231 6.04609C10.8397 6.04609 11.0475 6.1299 11.2007 6.27907C11.3538 6.42825 11.4399 6.63058 11.4399 6.84155C11.4399 7.05251 11.3538 7.25484 11.2007 7.40402C11.0475 7.55319 10.8397 7.637 10.6231 7.637C10.4065 7.637 10.1988 7.55319 10.0456 7.40402C9.89242 7.25484 9.80636 7.05251 9.80636 6.84155C9.80636 6.63058 9.89242 6.42825 10.0456 6.27907C10.1988 6.1299 10.4065 6.04609 10.6231 6.04609ZM12.2514 0.954545H2.12358C1.82031 0.954545 1.52947 1.07187 1.31503 1.28072C1.10059 1.48957 0.980114 1.77283 0.980114 2.06818V3.18373H13.3949V2.06818C13.3949 1.77283 13.2744 1.48957 13.06 1.28072C12.8455 1.07187 12.5547 0.954545 12.2514 0.954545Z" fill="#515E72"/>
</svg>
