<svg width="13" height="13" viewBox="0 0 13 13" fill="none" xmlns="http://www.w3.org/2000/svg">
<path d="M0.656854 2.07108C0.26633 1.68056 0.26633 1.04739 0.656854 0.656867C1.04738 0.266343 1.68054 0.266342 2.07107 0.656867L11.9706 10.5564C12.3611 10.9469 12.3611 11.5801 11.9706 11.9706C11.58 12.3611 10.9469 12.3611 10.5563 11.9706L0.656854 2.07108Z" fill="#A9A9A9"/>
<path d="M2.07107 11.9706C1.68054 12.3611 1.04738 12.3611 0.656854 11.9706C0.26633 11.5801 0.26633 10.9469 0.656854 10.5564L10.5563 0.656867C10.9469 0.266343 11.58 0.266342 11.9706 0.656867C12.3611 1.04739 12.3611 1.68056 11.9706 2.07108L2.07107 11.9706Z" fill="#A9A9A9"/>
</svg>
