<svg width="16" height="14" viewBox="0 0 16 14" fill="none" xmlns="http://www.w3.org/2000/svg">
<path d="M5.86046 7.27778H0.837209C0.617577 7.27778 0.5 7.1176 0.5 7V0.777778C0.5 0.660176 0.617577 0.5 0.837209 0.5H5.86046C6.0801 0.5 6.19767 0.660177 6.19767 0.777778V7C6.19767 7.1176 6.0801 7.27778 5.86046 7.27778ZM5.86046 13.5H0.837209C0.617577 13.5 0.5 13.3398 0.5 13.2222V10.1111C0.5 9.99351 0.617577 9.83333 0.837209 9.83333H5.86046C6.0801 9.83333 6.19767 9.99351 6.19767 10.1111V13.2222C6.19767 13.3398 6.0801 13.5 5.86046 13.5ZM14.2326 13.5H9.2093C8.98967 13.5 8.87209 13.3398 8.87209 13.2222V7C8.87209 6.8824 8.98967 6.72222 9.2093 6.72222H14.2326C14.4522 6.72222 14.5698 6.8824 14.5698 7V13.2222C14.5698 13.3398 14.4522 13.5 14.2326 13.5ZM8.87209 3.88889V0.777778C8.87209 0.660176 8.98967 0.5 9.2093 0.5H14.2326C14.4522 0.5 14.5698 0.660176 14.5698 0.777778V3.88889C14.5698 4.00649 14.4522 4.16667 14.2326 4.16667H9.2093C8.98967 4.16667 8.87209 4.00649 8.87209 3.88889Z" stroke="#515E72"/>
</svg>
