<svg width="15" height="16" viewBox="0 0 15 16" fill="none" xmlns="http://www.w3.org/2000/svg">
<path fill-rule="evenodd" clip-rule="evenodd" d="M13.9993 13V6L8.58295 1H3.16656C2.59195 1 2.04088 1.21071 1.63457 1.58579C1.22826 1.96086 1 2.46957 1 3V13C1 13.5304 1.22826 14.0391 1.63457 14.4142C2.04088 14.7893 2.59195 15 3.16656 15H11.8328C12.4074 15 12.9585 14.7893 13.3648 14.4142C13.7711 14.0391 13.9993 13.5304 13.9993 13Z" stroke="#515E72" stroke-linecap="round" stroke-linejoin="round"/>
<path d="M8.58301 1.00098V4.00101C8.58301 4.53145 8.81127 5.04016 9.21758 5.41524C9.62389 5.79031 10.175 6.00103 10.7496 6.00103H13.9994" stroke="#515E72" stroke-linecap="round" stroke-linejoin="round"/>
</svg>
