<svg width="42" height="42" viewBox="0 0 42 42" fill="none" xmlns="http://www.w3.org/2000/svg">
<circle cx="21" cy="21" r="21" fill="#E3E8F1"/>
<path d="M21 19.7895C22.5913 19.7895 24.1174 19.1684 25.2426 18.0629C26.3679 16.9575 27 15.4581 27 13.8947C27 12.3314 26.3679 10.832 25.2426 9.72653C24.1174 8.62105 22.5913 8 21 8C19.4087 8 17.8826 8.62105 16.7574 9.72653C15.6321 10.832 15 12.3314 15 13.8947C15 15.4581 15.6321 16.9575 16.7574 18.0629C17.8826 19.1684 19.4087 19.7895 21 19.7895V19.7895ZM25 13.8947C25 14.937 24.5786 15.9366 23.8284 16.6735C23.0783 17.4105 22.0609 17.8246 21 17.8246C19.9391 17.8246 18.9217 17.4105 18.1716 16.6735C17.4214 15.9366 17 14.937 17 13.8947C17 12.8525 17.4214 11.8529 18.1716 11.1159C18.9217 10.3789 19.9391 9.96491 21 9.96491C22.0609 9.96491 23.0783 10.3789 23.8284 11.1159C24.5786 11.8529 25 12.8525 25 13.8947V13.8947ZM33 29.614C33 31.5789 31 31.5789 31 31.5789H11C11 31.5789 9 31.5789 9 29.614C9 27.6491 11 21.7544 21 21.7544C31 21.7544 33 27.6491 33 29.614ZM31 29.6062C30.998 29.1228 30.692 27.6688 29.336 26.3366C28.032 25.0554 25.578 23.7193 21 23.7193C16.42 23.7193 13.968 25.0554 12.664 26.3366C11.308 27.6688 11.004 29.1228 11 29.6062H31Z" fill="#515E72"/>
</svg>
