<svg width="19" height="14" viewBox="0 0 19 14" fill="none" xmlns="http://www.w3.org/2000/svg">
<path d="M17.5 14C17.5 14 18.6667 14 18.6667 12.8333C18.6667 11.6667 17.5 8.16667 12.8333 8.16667C8.16667 8.16667 7 11.6667 7 12.8333C7 14 8.16667 14 8.16667 14H17.5ZM8.19233 12.8333C8.18371 12.8321 8.17515 12.8306 8.16667 12.8287C8.16783 12.5207 8.3615 11.627 9.05333 10.822C9.69733 10.0672 10.829 9.33333 12.8333 9.33333C14.8365 9.33333 15.9682 10.0683 16.6133 10.822C17.3052 11.627 17.4977 12.5218 17.5 12.8287L17.4907 12.831C17.4852 12.8319 17.4798 12.8327 17.4743 12.8333H8.19233ZM12.8333 5.83333C13.4522 5.83333 14.0457 5.5875 14.4832 5.14992C14.9208 4.71233 15.1667 4.11884 15.1667 3.5C15.1667 2.88116 14.9208 2.28767 14.4832 1.85008C14.0457 1.4125 13.4522 1.16667 12.8333 1.16667C12.2145 1.16667 11.621 1.4125 11.1834 1.85008C10.7458 2.28767 10.5 2.88116 10.5 3.5C10.5 4.11884 10.7458 4.71233 11.1834 5.14992C11.621 5.5875 12.2145 5.83333 12.8333 5.83333ZM16.3333 3.5C16.3333 3.95963 16.2428 4.41475 16.0669 4.83939C15.891 5.26403 15.6332 5.64987 15.3082 5.97487C14.9832 6.29988 14.5974 6.55769 14.1727 6.73358C13.7481 6.90947 13.293 7 12.8333 7C12.3737 7 11.9186 6.90947 11.4939 6.73358C11.0693 6.55769 10.6835 6.29988 10.3585 5.97487C10.0335 5.64987 9.77565 5.26403 9.59975 4.83939C9.42386 4.41475 9.33333 3.95963 9.33333 3.5C9.33333 2.57174 9.70208 1.6815 10.3585 1.02513C11.0148 0.368749 11.9051 0 12.8333 0C13.7616 0 14.6518 0.368749 15.3082 1.02513C15.9646 1.6815 16.3333 2.57174 16.3333 3.5ZM8.092 8.49333C7.62531 8.34638 7.14424 8.24977 6.657 8.20517C6.38322 8.17913 6.10835 8.16628 5.83333 8.16667C1.16667 8.16667 0 11.6667 0 12.8333C0 13.6115 0.3885 14 1.16667 14H6.08533C5.91238 13.6358 5.82613 13.2365 5.83333 12.8333C5.83333 11.655 6.27317 10.451 7.105 9.44533C7.3885 9.10233 7.71867 8.7815 8.092 8.49333ZM5.74 9.33333C5.04951 10.3708 4.67651 11.5871 4.66667 12.8333H1.16667C1.16667 12.53 1.358 11.6317 2.05333 10.822C2.68917 10.08 3.794 9.35667 5.74 9.3345V9.33333ZM1.75 4.08333C1.75 3.15508 2.11875 2.26484 2.77513 1.60846C3.4315 0.952082 4.32174 0.583333 5.25 0.583333C6.17826 0.583333 7.0685 0.952082 7.72487 1.60846C8.38125 2.26484 8.75 3.15508 8.75 4.08333C8.75 5.01159 8.38125 5.90183 7.72487 6.55821C7.0685 7.21458 6.17826 7.58333 5.25 7.58333C4.32174 7.58333 3.4315 7.21458 2.77513 6.55821C2.11875 5.90183 1.75 5.01159 1.75 4.08333ZM5.25 1.75C4.63116 1.75 4.03767 1.99583 3.60008 2.43342C3.1625 2.871 2.91667 3.46449 2.91667 4.08333C2.91667 4.70217 3.1625 5.29566 3.60008 5.73325C4.03767 6.17083 4.63116 6.41667 5.25 6.41667C5.86884 6.41667 6.46233 6.17083 6.89992 5.73325C7.3375 5.29566 7.58333 4.70217 7.58333 4.08333C7.58333 3.46449 7.3375 2.871 6.89992 2.43342C6.46233 1.99583 5.86884 1.75 5.25 1.75Z" fill="#515E72"/>
</svg>
