<svg width="15" height="14" viewBox="0 0 15 14" fill="none" xmlns="http://www.w3.org/2000/svg">
<path d="M7.125 7C8.06983 7 8.97597 6.63125 9.64407 5.97487C10.3122 5.3185 10.6875 4.42826 10.6875 3.5C10.6875 2.57174 10.3122 1.6815 9.64407 1.02513C8.97597 0.368749 8.06983 0 7.125 0C6.18017 0 5.27403 0.368749 4.60593 1.02513C3.93783 1.6815 3.5625 2.57174 3.5625 3.5C3.5625 4.42826 3.93783 5.3185 4.60593 5.97487C5.27403 6.63125 6.18017 7 7.125 7ZM9.5 3.5C9.5 4.11884 9.24978 4.71233 8.80438 5.14992C8.35898 5.5875 7.75489 5.83333 7.125 5.83333C6.49511 5.83333 5.89102 5.5875 5.44562 5.14992C5.00022 4.71233 4.75 4.11884 4.75 3.5C4.75 2.88116 5.00022 2.28767 5.44562 1.85008C5.89102 1.4125 6.49511 1.16667 7.125 1.16667C7.75489 1.16667 8.35898 1.4125 8.80438 1.85008C9.24978 2.28767 9.5 2.88116 9.5 3.5ZM14.25 12.8333C14.25 14 13.0625 14 13.0625 14H1.1875C1.1875 14 0 14 0 12.8333C0 11.6667 1.1875 8.16667 7.125 8.16667C13.0625 8.16667 14.25 11.6667 14.25 12.8333ZM13.0625 12.8287C13.0613 12.5417 12.8796 11.6783 12.0745 10.8873C11.3003 10.1267 9.84319 9.33333 7.125 9.33333C4.40562 9.33333 2.94975 10.1267 2.1755 10.8873C1.37038 11.6783 1.18988 12.5417 1.1875 12.8287H13.0625Z" fill="#515E72"/>
</svg>
