<svg width="15" height="15" viewBox="0 0 15 15" fill="none" xmlns="http://www.w3.org/2000/svg">
<path d="M7.125 8C8.06983 8 8.97597 7.63125 9.64407 6.97487C10.3122 6.3185 10.6875 5.42826 10.6875 4.5C10.6875 3.57174 10.3122 2.6815 9.64407 2.02513C8.97597 1.36875 8.06983 1 7.125 1C6.18017 1 5.27403 1.36875 4.60593 2.02513C3.93783 2.6815 3.5625 3.57174 3.5625 4.5C3.5625 5.42826 3.93783 6.3185 4.60593 6.97487C5.27403 7.63125 6.18017 8 7.125 8ZM9.5 4.5C9.5 5.11884 9.24978 5.71233 8.80438 6.14992C8.35898 6.5875 7.75489 6.83333 7.125 6.83333C6.49511 6.83333 5.89102 6.5875 5.44562 6.14992C5.00022 5.71233 4.75 5.11884 4.75 4.5C4.75 3.88116 5.00022 3.28767 5.44562 2.85008C5.89102 2.4125 6.49511 2.16667 7.125 2.16667C7.75489 2.16667 8.35898 2.4125 8.80438 2.85008C9.24978 3.28767 9.5 3.88116 9.5 4.5ZM14.25 13.8333C14.25 15 13.0625 15 13.0625 15H1.1875C1.1875 15 0 15 0 13.8333C0 12.6667 1.1875 9.16667 7.125 9.16667C13.0625 9.16667 14.25 12.6667 14.25 13.8333ZM13.0625 13.8287C13.0613 13.5417 12.8796 12.6783 12.0745 11.8873C11.3003 11.1267 9.84319 10.3333 7.125 10.3333C4.40562 10.3333 2.94975 11.1267 2.1755 11.8873C1.37038 12.6783 1.18988 13.5417 1.1875 13.8287H13.0625Z" fill="#515E72"/>
</svg>
