<svg width="12" height="15" viewBox="0 0 12 15" fill="none" xmlns="http://www.w3.org/2000/svg">
<path d="M5 9.295L3.705 8L3 8.705L5 10.705L9 6.705L8.295 6L5 9.295Z" fill="#515E72"/>
<path d="M6 15L2.912 13.3535C2.03167 12.8851 1.29549 12.1859 0.782463 11.3309C0.26944 10.4758 -0.00105653 9.49716 3.10129e-06 8.5V2C0.000267839 1.73486 0.10571 1.48066 0.293189 1.29319C0.480668 1.10571 0.734867 1.00026 1 1H11C11.2651 1.00026 11.5193 1.10571 11.7068 1.29319C11.8943 1.48066 11.9997 1.73486 12 2V8.5C12.0011 9.49716 11.7306 10.4758 11.2175 11.3309C10.7045 12.1859 9.96833 12.8851 9.088 13.3535L6 15ZM1 2V8.5C0.999173 9.3159 1.22055 10.1166 1.64038 10.8162C2.06021 11.5158 2.66264 12.0879 3.383 12.471L6 13.8665L8.617 12.4715C9.33743 12.0883 9.93991 11.5162 10.3597 10.8165C10.7796 10.1168 11.0009 9.31598 11 8.5V2H1Z" fill="#515E72"/>
</svg>
