<svg width="42" height="42" viewBox="0 0 42 42" fill="none" xmlns="http://www.w3.org/2000/svg">
<circle cx="21" cy="21" r="21" fill="#E3E8F1"/>
<path d="M19 13C16.7909 13 15 14.7909 15 17C15 19.2091 16.7909 21 19 21C21.2091 21 23 19.2091 23 17C23 14.7909 21.2091 13 19 13ZM13 17C13 13.6863 15.6863 11 19 11C22.3137 11 25 13.6863 25 17C25 20.3137 22.3137 23 19 23C15.6863 23 13 20.3137 13 17ZM28 20C28.5523 20 29 20.4477 29 21V22H30C30.5523 22 31 22.4477 31 23C31 23.5523 30.5523 24 30 24H29V25C29 25.5523 28.5523 26 28 26C27.4477 26 27 25.5523 27 25V24H26C25.4477 24 25 23.5523 25 23C25 22.4477 25.4477 22 26 22H27V21C27 20.4477 27.4477 20 28 20ZM15.5 27C14.2405 27 13 28.2135 13 30C13 30.5523 12.5523 31 12 31C11.4477 31 11 30.5523 11 30C11 27.3682 12.8935 25 15.5 25H22.5C25.1065 25 27 27.3682 27 30C27 30.5523 26.5523 31 26 31C25.4477 31 25 30.5523 25 30C25 28.2135 23.7595 27 22.5 27H15.5Z" fill="#636363"/>
</svg>
