<svg width="487" height="466" viewBox="0 0 487 466" fill="none" xmlns="http://www.w3.org/2000/svg">
<path fill-rule="evenodd" clip-rule="evenodd" d="M275.935 1.46808C319.962 -4.33852 364.006 13.0655 401.313 40.0604C439.152 67.4403 479.387 103.608 485.62 153.194C491.676 201.377 443.588 235.093 431.697 281.772C419.772 328.58 445.152 386.366 416.802 423.328C387.862 461.059 336.17 466.953 291.437 464.641C248.899 462.442 210.921 438.666 176.278 410.896C142.56 383.866 106.915 353.27 96.726 308.554C86.882 265.354 111.367 224.245 124.163 182.19C136.202 142.623 143.494 101.179 169.102 70.6861C197.92 36.3706 233.88 7.01454 275.935 1.46808Z" fill="url(#paint0_linear)"/>
<rect y="75" width="396" height="308" rx="10.3522" fill="white"/>
<rect x="46" y="145" width="80.2063" height="80.2063" rx="4.86099" fill="#E8E8FF"/>
<path d="M87.3185 172.951H77.5965C76.9519 172.951 76.3337 173.207 75.8779 173.663C75.4221 174.119 75.166 174.737 75.166 175.382V194.826C75.166 195.47 75.4221 196.088 75.8779 196.544C76.3337 197 76.9519 197.256 77.5965 197.256H92.1795C92.8241 197.256 93.4423 197 93.8981 196.544C94.3539 196.088 94.61 195.47 94.61 194.826V180.243L87.3185 172.951ZM81.5327 190.507C81.5327 191.907 80.8631 192.395 79.7852 192.395C79.53 192.395 79.1946 192.351 78.977 192.277L79.0998 191.382C79.2541 191.433 79.451 191.469 79.6697 191.469C80.1364 191.469 80.4268 191.258 80.4268 190.492V187.402H81.5339L81.5327 190.507ZM85.5357 190.063C85.1553 190.419 84.5963 190.581 83.9401 190.581C83.7943 190.581 83.663 190.572 83.5609 190.558V192.314H82.4599V187.467C82.957 187.392 83.4594 187.359 83.962 187.366C84.6462 187.366 85.1347 187.496 85.4616 187.759C85.7763 188.007 85.9878 188.415 85.9878 188.896C85.9878 189.378 85.8262 189.786 85.5357 190.063ZM90.7989 192.089C90.4587 192.206 89.8085 192.366 89.1596 192.366C88.2639 192.366 87.615 192.14 87.1629 191.702C86.7121 191.28 86.4642 190.639 86.4702 189.917C86.4787 188.284 87.6648 187.352 89.2762 187.352C89.9094 187.352 90.3991 187.477 90.6385 187.592L90.4064 188.481C90.1366 188.364 89.8024 188.269 89.2629 188.269C88.3381 188.269 87.6369 188.794 87.6369 189.859C87.6369 190.871 88.2725 191.469 89.1815 191.469C89.4379 191.469 89.6408 191.44 89.7295 191.395V190.367H88.9712V189.5H90.7989V192.089ZM87.3185 181.458H86.1032V175.382L92.1795 181.458H87.3185Z" fill="#9D84CF"/>
<path d="M84.0187 188.204C83.7927 188.204 83.6395 188.226 83.5605 188.248V189.698C83.6541 189.72 83.772 189.726 83.9336 189.726C84.5218 189.726 84.8864 189.427 84.8864 188.925C84.8864 188.473 84.5741 188.204 84.0187 188.204Z" fill="#56B4E4"/>
<rect x="46" y="258" width="80.2063" height="80.2063" rx="4.86099" fill="#E8E8FF"/>
<path d="M87.3185 285.951H77.5965C76.9519 285.951 76.3337 286.207 75.8779 286.663C75.4221 287.119 75.166 287.737 75.166 288.382V307.826C75.166 308.47 75.4221 309.088 75.8779 309.544C76.3337 310 76.9519 310.256 77.5965 310.256H92.1795C92.8241 310.256 93.4423 310 93.8981 309.544C94.3539 309.088 94.61 308.47 94.61 307.826V293.243L87.3185 285.951ZM81.5327 303.507C81.5327 304.907 80.8631 305.395 79.7852 305.395C79.53 305.395 79.1946 305.351 78.977 305.277L79.0998 304.382C79.2541 304.433 79.451 304.469 79.6697 304.469C80.1364 304.469 80.4268 304.258 80.4268 303.492V300.402H81.5339L81.5327 303.507ZM85.5357 303.063C85.1553 303.419 84.5963 303.581 83.9401 303.581C83.7943 303.581 83.663 303.572 83.5609 303.558V305.314H82.4599V300.467C82.957 300.392 83.4594 300.359 83.962 300.366C84.6462 300.366 85.1347 300.496 85.4616 300.759C85.7763 301.007 85.9878 301.415 85.9878 301.896C85.9878 302.378 85.8262 302.786 85.5357 303.063ZM90.7989 305.089C90.4587 305.206 89.8085 305.366 89.1596 305.366C88.2639 305.366 87.615 305.14 87.1629 304.702C86.7121 304.28 86.4642 303.639 86.4702 302.917C86.4787 301.284 87.6648 300.352 89.2762 300.352C89.9094 300.352 90.3991 300.477 90.6385 300.592L90.4064 301.481C90.1366 301.364 89.8024 301.269 89.2629 301.269C88.3381 301.269 87.6369 301.794 87.6369 302.859C87.6369 303.871 88.2725 304.469 89.1815 304.469C89.4379 304.469 89.6408 304.44 89.7295 304.395V303.367H88.9712V302.5H90.7989V305.089ZM87.3185 294.458H86.1032V288.382L92.1795 294.458H87.3185Z" fill="#9D83CF"/>
<path d="M84.0187 301.204C83.7927 301.204 83.6395 301.226 83.5605 301.248V302.698C83.6541 302.72 83.772 302.726 83.9336 302.726C84.5218 302.726 84.8864 302.427 84.8864 301.925C84.8864 301.473 84.5741 301.204 84.0187 301.204Z" fill="#9D83CF"/>
<rect x="159" y="145" width="80.2063" height="80.2063" rx="4.86099" fill="#E8E8FF"/>
<path d="M200.318 172.951H190.597C189.952 172.951 189.334 173.207 188.878 173.663C188.422 174.119 188.166 174.737 188.166 175.382V194.826C188.166 195.47 188.422 196.088 188.878 196.544C189.334 197 189.952 197.256 190.597 197.256H205.179C205.824 197.256 206.442 197 206.898 196.544C207.354 196.088 207.61 195.47 207.61 194.826V180.243L200.318 172.951ZM194.533 190.507C194.533 191.907 193.863 192.395 192.785 192.395C192.53 192.395 192.195 192.351 191.977 192.277L192.1 191.382C192.254 191.433 192.451 191.469 192.67 191.469C193.136 191.469 193.427 191.258 193.427 190.492V187.402H194.534L194.533 190.507ZM198.536 190.063C198.155 190.419 197.596 190.581 196.94 190.581C196.794 190.581 196.663 190.572 196.561 190.558V192.314H195.46V187.467C195.957 187.392 196.459 187.359 196.962 187.366C197.646 187.366 198.135 187.496 198.462 187.759C198.776 188.007 198.988 188.415 198.988 188.896C198.988 189.378 198.826 189.786 198.536 190.063ZM203.799 192.089C203.459 192.206 202.809 192.366 202.16 192.366C201.264 192.366 200.615 192.14 200.163 191.702C199.712 191.28 199.464 190.639 199.47 189.917C199.479 188.284 200.665 187.352 202.276 187.352C202.909 187.352 203.399 187.477 203.639 187.592L203.406 188.481C203.137 188.364 202.802 188.269 202.263 188.269C201.338 188.269 200.637 188.794 200.637 189.859C200.637 190.871 201.272 191.469 202.181 191.469C202.438 191.469 202.641 191.44 202.73 191.395V190.367H201.971V189.5H203.799V192.089ZM200.318 181.458H199.103V175.382L205.179 181.458H200.318Z" fill="#9D83CF"/>
<path d="M197.019 188.204C196.793 188.204 196.64 188.226 196.561 188.248V189.698C196.654 189.72 196.772 189.726 196.934 189.726C197.522 189.726 197.886 189.427 197.886 188.925C197.886 188.473 197.574 188.204 197.019 188.204Z" fill="#9D83CF"/>
<rect x="272" y="145" width="80.2063" height="80.2063" rx="4.86099" fill="#FAF6EE"/>
<path d="M312.328 188.204C311.578 188.204 311.141 188.917 311.141 189.873C311.141 190.834 311.591 191.513 312.335 191.513C313.085 191.513 313.515 190.799 313.515 189.843C313.515 188.961 313.092 188.204 312.328 188.204Z" fill="#F4B75A"/>
<path d="M314.533 172.95H304.811C304.167 172.95 303.549 173.206 303.093 173.662C302.637 174.118 302.381 174.736 302.381 175.381V194.825C302.381 195.469 302.637 196.087 303.093 196.543C303.549 196.999 304.167 197.255 304.811 197.255H319.394C320.039 197.255 320.657 196.999 321.113 196.543C321.569 196.087 321.825 195.469 321.825 194.825V180.242L314.533 172.95ZM308.645 191.731C308.128 192.161 307.341 192.364 306.38 192.364C305.803 192.364 305.396 192.327 305.119 192.291V187.465C305.616 187.394 306.118 187.36 306.62 187.364C307.553 187.364 308.158 187.532 308.631 187.889C309.141 188.268 309.462 188.874 309.462 189.739C309.462 190.681 309.119 191.33 308.645 191.731ZM312.279 192.394C310.821 192.394 309.969 191.293 309.969 189.893C309.969 188.422 310.908 187.322 312.359 187.322C313.867 187.322 314.691 188.451 314.691 189.807C314.69 191.417 313.713 192.394 312.279 192.394ZM317.936 191.468C318.27 191.468 318.642 191.394 318.862 191.308L319.03 192.174C318.826 192.276 318.366 192.386 317.77 192.386C316.072 192.386 315.197 191.33 315.197 189.93C315.197 188.254 316.391 187.322 317.879 187.322C318.455 187.322 318.891 187.438 319.088 187.54L318.862 188.423C318.566 188.3 318.249 188.238 317.929 188.24C317.046 188.24 316.361 188.773 316.361 189.866C316.361 190.85 316.944 191.468 317.936 191.468ZM314.533 181.457H313.318V175.381L319.394 181.457H314.533Z" fill="#F4B75A"/>
<path d="M306.736 188.218C306.49 188.218 306.329 188.24 306.234 188.262V191.476C306.329 191.498 306.482 191.498 306.62 191.498C307.626 191.505 308.281 190.952 308.281 189.778C308.288 188.757 307.691 188.218 306.736 188.218Z" fill="#F4B75A"/>
<rect x="272" y="258" width="80.2063" height="80.2063" rx="4.86099" fill="#FEF2F1"/>
<path d="M307.565 301.36C307.342 301.36 307.191 301.382 307.113 301.404V302.836C307.206 302.858 307.321 302.864 307.48 302.864C308.062 302.864 308.421 302.57 308.421 302.072C308.421 301.628 308.112 301.36 307.565 301.36ZM311.803 301.375C311.56 301.375 311.402 301.397 311.308 301.419V304.59C311.402 304.612 311.553 304.612 311.689 304.612C312.682 304.62 313.328 304.073 313.328 302.916C313.335 301.907 312.746 301.375 311.803 301.375Z" fill="#EB534C"/>
<path d="M314.533 285.951H304.811C304.167 285.951 303.549 286.207 303.093 286.663C302.637 287.119 302.381 287.737 302.381 288.382V307.826C302.381 308.47 302.637 309.088 303.093 309.544C303.549 310 304.167 310.256 304.811 310.256H319.394C320.039 310.256 320.657 310 321.113 309.544C321.569 309.088 321.825 308.47 321.825 307.826V293.243L314.533 285.951ZM309.062 303.196C308.687 303.548 308.133 303.706 307.487 303.706C307.362 303.707 307.237 303.7 307.113 303.684V305.417H306.027V300.634C306.517 300.561 307.012 300.527 307.508 300.534C308.185 300.534 308.666 300.663 308.991 300.922C309.299 301.167 309.508 301.57 309.508 302.043C309.507 302.52 309.349 302.922 309.062 303.196ZM313.689 304.842C313.178 305.266 312.402 305.468 311.453 305.468C310.884 305.468 310.482 305.432 310.208 305.395V300.635C310.699 300.563 311.194 300.53 311.69 300.534C312.61 300.534 313.207 300.699 313.674 301.052C314.178 301.426 314.494 302.023 314.494 302.88C314.494 303.807 314.155 304.447 313.689 304.842ZM318.179 301.47H316.317V302.577H318.058V303.469H316.317V305.418H315.216V300.571H318.179V301.47ZM314.533 294.458H313.318V288.382L319.394 294.458H314.533Z" fill="#EB534C"/>
<rect x="159" y="258" width="80.2063" height="80.2063" rx="4.86099" fill="#FEF2F1"/>
<path d="M194.565 301.36C194.342 301.36 194.191 301.382 194.113 301.404V302.836C194.206 302.858 194.321 302.864 194.48 302.864C195.062 302.864 195.421 302.57 195.421 302.072C195.421 301.628 195.112 301.36 194.565 301.36ZM198.803 301.375C198.56 301.375 198.402 301.397 198.308 301.419V304.59C198.402 304.612 198.553 304.612 198.689 304.612C199.682 304.62 200.328 304.073 200.328 302.916C200.335 301.907 199.746 301.375 198.803 301.375Z" fill="#EB534C"/>
<path d="M201.533 285.951H191.811C191.167 285.951 190.549 286.207 190.093 286.663C189.637 287.119 189.381 287.737 189.381 288.382V307.826C189.381 308.47 189.637 309.088 190.093 309.544C190.549 310 191.167 310.256 191.811 310.256H206.394C207.039 310.256 207.657 310 208.113 309.544C208.569 309.088 208.825 308.47 208.825 307.826V293.243L201.533 285.951ZM196.062 303.196C195.687 303.548 195.133 303.706 194.487 303.706C194.362 303.707 194.237 303.7 194.113 303.684V305.417H193.027V300.634C193.517 300.561 194.012 300.527 194.508 300.534C195.185 300.534 195.666 300.663 195.991 300.922C196.299 301.167 196.508 301.57 196.508 302.043C196.507 302.52 196.349 302.922 196.062 303.196ZM200.689 304.842C200.178 305.266 199.402 305.468 198.453 305.468C197.884 305.468 197.482 305.432 197.208 305.395V300.635C197.699 300.563 198.194 300.53 198.69 300.534C199.61 300.534 200.207 300.699 200.674 301.052C201.178 301.426 201.494 302.023 201.494 302.88C201.494 303.807 201.155 304.447 200.689 304.842ZM205.179 301.47H203.317V302.577H205.058V303.469H203.317V305.418H202.216V300.571H205.179V301.47ZM201.533 294.458H200.318V288.382L206.394 294.458H201.533Z" fill="#EB534C"/>
<circle cx="86" cy="108" r="4" fill="#252E2A"/>
<rect x="111" y="106" width="218" height="4" rx="2" fill="#252E2A"/>
<defs>
<linearGradient id="paint0_linear" x1="174.14" y1="153.602" x2="569.714" y2="140.362" gradientUnits="userSpaceOnUse">
<stop stop-color="#C9D6FF"/>
<stop offset="1" stop-color="#FFE5ED"/>
</linearGradient>
</defs>
</svg>
