<svg width="393" height="466" viewBox="0 0 393 466" fill="none" xmlns="http://www.w3.org/2000/svg">
<path fill-rule="evenodd" clip-rule="evenodd" d="M181.935 1.46808C225.962 -4.33852 270.006 13.0655 307.313 40.0604C345.152 67.4403 385.387 103.608 391.62 153.194C397.676 201.377 349.588 235.093 337.697 281.772C325.772 328.58 351.152 386.366 322.802 423.328C293.862 461.059 242.17 466.953 197.437 464.641C154.899 462.442 116.921 438.666 82.2782 410.896C48.5597 383.866 12.9154 353.27 2.72604 308.554C-7.11804 265.354 17.3674 224.245 30.1631 182.19C42.2022 142.623 49.4935 101.179 75.1016 70.6861C103.92 36.3706 139.88 7.01454 181.935 1.46808Z" fill="url(#paint0_linear)"/>
<defs>
<linearGradient id="paint0_linear" x1="80.1399" y1="153.602" x2="475.714" y2="140.362" gradientUnits="userSpaceOnUse">
<stop stop-color="#C9D6FF"/>
<stop offset="1" stop-color="#FFE5ED"/>
</linearGradient>
</defs>
</svg>
