<svg width="111" height="109" viewBox="0 0 111 109" fill="none" xmlns="http://www.w3.org/2000/svg">
<ellipse cx="55.5" cy="54.0729" rx="55.5" ry="54.0729" fill="#99B1D5" fill-opacity="0.21"/>
<path d="M56 25.6667C50.3962 25.6667 44.9182 27.3284 40.2588 30.4417C35.5995 33.555 31.9679 37.9801 29.8234 43.1573C27.6789 48.3345 27.1178 54.0314 28.2111 59.5276C29.3043 65.0237 32.0028 70.0722 35.9653 74.0347C39.9278 77.9972 44.9763 80.6957 50.4724 81.7889C55.9686 82.8822 61.6655 82.3211 66.8427 80.1766C72.0199 78.0321 76.445 74.4005 79.5583 69.7412C82.6716 65.0818 84.3333 59.6038 84.3333 54C84.3333 50.2792 83.6005 46.5949 82.1766 43.1573C80.7527 39.7197 78.6657 36.5963 76.0347 33.9653C73.4037 31.3343 70.2803 29.2473 66.8427 27.8234C63.4051 26.3995 59.7208 25.6667 56 25.6667V25.6667ZM56 76.6667C51.517 76.6667 47.1346 75.3373 43.4071 72.8466C39.6796 70.356 36.7743 66.8159 35.0587 62.6742C33.3431 58.5324 32.8943 53.9749 33.7689 49.578C34.6435 45.181 36.8023 41.1422 39.9722 37.9722C43.1422 34.8023 47.1811 32.6435 51.578 31.7689C55.9749 30.8943 60.5324 31.3431 64.6742 33.0587C68.816 34.7743 72.356 37.6796 74.8466 41.4071C77.3373 45.1346 78.6667 49.517 78.6667 54C78.6667 60.0116 76.2786 65.7769 72.0278 70.0278C67.7769 74.2786 62.0116 76.6667 56 76.6667V76.6667ZM67.3333 51.1667H58.8333V42.6667C58.8333 41.9152 58.5348 41.1945 58.0035 40.6632C57.4721 40.1318 56.7514 39.8333 56 39.8333C55.2486 39.8333 54.5279 40.1318 53.9965 40.6632C53.4652 41.1945 53.1667 41.9152 53.1667 42.6667V51.1667H44.6667C43.9152 51.1667 43.1946 51.4652 42.6632 51.9965C42.1318 52.5279 41.8333 53.2486 41.8333 54C41.8333 54.7514 42.1318 55.4721 42.6632 56.0035C43.1946 56.5348 43.9152 56.8333 44.6667 56.8333H53.1667V65.3333C53.1667 66.0848 53.4652 66.8054 53.9965 67.3368C54.5279 67.8682 55.2486 68.1667 56 68.1667C56.7514 68.1667 57.4721 67.8682 58.0035 67.3368C58.5348 66.8054 58.8333 66.0848 58.8333 65.3333V56.8333H67.3333C68.0848 56.8333 68.8055 56.5348 69.3368 56.0035C69.8682 55.4721 70.1667 54.7514 70.1667 54C70.1667 53.2486 69.8682 52.5279 69.3368 51.9965C68.8055 51.4652 68.0848 51.1667 67.3333 51.1667Z" fill="#515E72"/>
</svg>
