<svg width="20" height="13" viewBox="0 0 20 13" fill="none" xmlns="http://www.w3.org/2000/svg">
<path d="M13.6395 0.215967C13.536 0.134009 13.4173 0.0733636 13.2902 0.0375302C13.1631 0.0016968 13.0302 -0.00861488 12.8991 0.00719003C12.768 0.0229949 12.6414 0.0646038 12.5264 0.129615C12.4115 0.194626 12.3106 0.281753 12.2295 0.385968L5.22953 9.38597L1.79953 5.20597C1.71907 5.09887 1.61792 5.00903 1.50208 4.94178C1.38623 4.87452 1.25806 4.83123 1.12516 4.81446C0.992265 4.7977 0.857355 4.8078 0.728438 4.84418C0.599522 4.88056 0.479227 4.94246 0.374695 5.02622C0.270163 5.10998 0.183524 5.21389 0.119921 5.33177C0.0563178 5.44966 0.0170469 5.57912 0.00443932 5.71248C-0.00816825 5.84583 0.00614464 5.98036 0.0465281 6.10808C0.0869115 6.2358 0.152542 6.3541 0.239525 6.45597L4.40952 11.636C4.50364 11.752 4.62256 11.8454 4.75754 11.9095C4.89252 11.9735 5.04013 12.0065 5.18953 12.006C5.3481 12.013 5.50609 11.9823 5.65041 11.9162C5.79474 11.8501 5.92127 11.7506 6.01953 11.626L13.8495 1.62597C13.8495 1.62597 13.9873 1.39919 14.02 1.2706C14.0527 1.14201 14.0594 1.00821 14.0399 0.876979C14.0203 0.74575 13.9749 0.619722 13.9061 0.506237C13.8374 0.392752 13.7468 0.294079 13.6395 0.215967Z" fill="#D2D9E6"/>
</svg>
