<svg width="14" height="18" viewBox="0 0 14 18" fill="none" xmlns="http://www.w3.org/2000/svg">
<path d="M0.300171 2.33342C0.300171 1.41294 1.04636 0.666748 1.96684 0.666748H8.6335C8.85452 0.666748 9.06648 0.754545 9.22276 0.910826L13.3894 5.07749C13.5457 5.23377 13.6335 5.44573 13.6335 5.66675V15.6667C13.6335 16.5872 12.8873 17.3334 11.9668 17.3334H1.96684C1.04636 17.3334 0.300171 16.5872 0.300171 15.6667V2.33342ZM11.6217 5.66675L8.6335 2.67859V5.66675H11.6217ZM6.96684 2.33341L1.96684 2.33342V15.6667H11.9668V7.33342H7.80017C7.33993 7.33342 6.96684 6.96032 6.96684 6.50008V2.33341Z" fill="#515E72"/>
</svg>
