<svg width="17" height="18" viewBox="0 0 17 18" fill="none" xmlns="http://www.w3.org/2000/svg">
<path d="M7.7093 3.08203H2.49096C2.09553 3.08203 1.7163 3.23911 1.43669 3.51872C1.15708 3.79833 1 4.17756 1 4.57299V15.0097C1 15.4051 1.15708 15.7843 1.43669 16.0639C1.7163 16.3436 2.09553 16.5006 2.49096 16.5006H12.9276C13.3231 16.5006 13.7023 16.3436 13.9819 16.0639C14.2615 15.7843 14.4186 15.4051 14.4186 15.0097V9.79133" stroke="#264071" stroke-width="1.98522" stroke-linecap="round" stroke-linejoin="round"/>
<path d="M13.2994 1.96318C13.596 1.66661 13.9982 1.5 14.4177 1.5C14.8371 1.5 15.2393 1.66661 15.5359 1.96318C15.8324 2.25975 15.9991 2.66198 15.9991 3.0814C15.9991 3.50081 15.8324 3.90304 15.5359 4.19961L8.45384 11.2817L5.47192 12.0271L6.2174 9.04522L13.2994 1.96318Z" stroke="#264071" stroke-width="1.98522" stroke-linecap="round" stroke-linejoin="round"/>
</svg>
