<svg width="18" height="18" viewBox="0 0 18 18" fill="none" xmlns="http://www.w3.org/2000/svg">
<path d="M7.33329 2.33341C5.49234 2.33341 3.99996 3.8258 3.99996 5.66675C3.99996 7.5077 5.49234 9.00008 7.33329 9.00008C9.17424 9.00008 10.6666 7.5077 10.6666 5.66675C10.6666 3.8258 9.17424 2.33341 7.33329 2.33341ZM2.33329 5.66675C2.33329 2.90532 4.57187 0.666748 7.33329 0.666748C10.0947 0.666748 12.3333 2.90532 12.3333 5.66675C12.3333 8.42817 10.0947 10.6667 7.33329 10.6667C4.57187 10.6667 2.33329 8.42817 2.33329 5.66675ZM13.0237 2.13121C13.3491 1.80578 13.8767 1.80578 14.2022 2.13121C16.1548 4.08384 16.1548 7.24966 14.2022 9.20228C13.8767 9.52772 13.3491 9.52772 13.0237 9.20228C12.6982 8.87685 12.6982 8.34921 13.0237 8.02377C14.3254 6.72202 14.3254 4.61147 13.0237 3.30973C12.6982 2.98429 12.6982 2.45665 13.0237 2.13121ZM13.6082 12.9646C13.7198 12.5181 14.1722 12.2467 14.6187 12.3583C15.7253 12.6349 16.4258 13.3425 16.8286 14.1482C17.2185 14.9279 17.3333 15.7977 17.3333 16.5001C17.3333 16.9603 16.9602 17.3334 16.5 17.3334C16.0397 17.3334 15.6666 16.9603 15.6666 16.5001C15.6666 15.9525 15.5731 15.364 15.3379 14.8936C15.1158 14.4493 14.7746 14.1152 14.2145 13.9752C13.768 13.8636 13.4966 13.4111 13.6082 12.9646ZM4.41663 14.0001C3.36708 14.0001 2.33329 15.0114 2.33329 16.5001C2.33329 16.9603 1.9602 17.3334 1.49996 17.3334C1.03972 17.3334 0.666626 16.9603 0.666626 16.5001C0.666626 14.3069 2.24452 12.3334 4.41663 12.3334H10.25C12.4221 12.3334 14 14.3069 14 16.5001C14 16.9603 13.6269 17.3334 13.1666 17.3334C12.7064 17.3334 12.3333 16.9603 12.3333 16.5001C12.3333 15.0114 11.2995 14.0001 10.25 14.0001H4.41663Z" fill="#515E72"/>
</svg>
