<svg width="20" height="18" viewBox="0 0 20 18" fill="none" xmlns="http://www.w3.org/2000/svg">
<path d="M9.99995 0.291748C10.3472 0.291748 10.6646 0.487917 10.8198 0.798469L13.1838 5.52646L18.3819 6.28254C18.7271 6.33276 19.0139 6.5746 19.1218 6.90641C19.2296 7.23821 19.1397 7.60245 18.8899 7.846L15.1067 11.5346L15.9577 16.7354C16.014 17.0791 15.8705 17.425 15.5876 17.6281C15.3047 17.8312 14.9311 17.8564 14.6234 17.6932L9.99995 15.2399L5.37648 17.6932C5.06882 17.8564 4.69522 17.8312 4.41228 17.6281C4.12934 17.425 3.98594 17.0791 4.04219 16.7354L4.89322 11.5346L1.11002 7.846C0.860223 7.60245 0.770335 7.23821 0.878141 6.90641C0.985947 6.5746 1.27276 6.33276 1.618 6.28254L6.81606 5.52646L9.18005 0.798469C9.33533 0.487917 9.65274 0.291748 9.99995 0.291748ZM9.99995 3.25814L8.24171 6.77461C8.10756 7.04292 7.85062 7.22861 7.55377 7.27179L3.7193 7.82953L6.51487 10.5552C6.72908 10.7641 6.82789 11.0643 6.77958 11.3596L6.14995 15.2073L9.57029 13.3924C9.83899 13.2499 10.1609 13.2499 10.4296 13.3924L13.8499 15.2073L13.2203 11.3596C13.172 11.0643 13.2708 10.7641 13.485 10.5552L16.2806 7.82953L12.4461 7.27179C12.1493 7.22861 11.8923 7.04292 11.7582 6.77461L9.99995 3.25814Z" fill="#626F7D"/>
</svg>
