<svg width="31" height="34" viewBox="0 0 31 34" fill="none" xmlns="http://www.w3.org/2000/svg">
<rect width="30.7794" height="33.4559" rx="7" fill="#56B4E4" fill-opacity="0.08"/>
<path d="M17 7H9C8.46957 7 7.96086 7.21071 7.58579 7.58579C7.21071 7.96086 7 8.46957 7 9V25C7 25.5304 7.21071 26.0391 7.58579 26.4142C7.96086 26.7893 8.46957 27 9 27H21C21.5304 27 22.0391 26.7893 22.4142 26.4142C22.7893 26.0391 23 25.5304 23 25V13L17 7ZM12.239 21.446C12.239 22.598 11.688 23 10.801 23C10.591 23 10.315 22.964 10.136 22.903L10.237 22.166C10.364 22.208 10.526 22.238 10.706 22.238C11.09 22.238 11.329 22.064 11.329 21.434V18.891H12.24V21.446H12.239ZM15.533 21.081C15.22 21.374 14.76 21.507 14.22 21.507C14.1 21.507 13.992 21.5 13.908 21.488V22.933H13.002V18.945C13.411 18.8834 13.8244 18.8557 14.238 18.862C14.801 18.862 15.203 18.969 15.472 19.185C15.731 19.389 15.905 19.725 15.905 20.121C15.905 20.517 15.772 20.853 15.533 21.081ZM19.864 22.748C19.584 22.844 19.049 22.976 18.515 22.976C17.778 22.976 17.244 22.79 16.872 22.43C16.501 22.082 16.297 21.555 16.302 20.961C16.309 19.617 17.285 18.85 18.611 18.85C19.132 18.85 19.535 18.953 19.732 19.048L19.541 19.779C19.319 19.683 19.044 19.605 18.6 19.605C17.839 19.605 17.262 20.037 17.262 20.913C17.262 21.746 17.785 22.238 18.533 22.238C18.744 22.238 18.911 22.214 18.984 22.177V21.331H18.36V20.618H19.864V22.748ZM17 14H16V9L21 14H17Z" fill="#56B4E4"/>
<path d="M14.285 19.552C14.099 19.552 13.973 19.57 13.908 19.588V20.781C13.985 20.799 14.082 20.804 14.215 20.804C14.699 20.804 14.999 20.558 14.999 20.145C14.999 19.773 14.742 19.552 14.285 19.552Z" fill="#56B4E4"/>
</svg>
