<svg width="251" height="166" viewBox="0 0 251 166" fill="none" xmlns="http://www.w3.org/2000/svg">
<path d="M21.7998 129.363V152.204H16.236V142.801H7.58113V152.204H2.0173V129.363H7.58113V138.311H16.236V129.363H21.7998ZM44.5577 142.833C44.5577 143.354 44.5252 143.896 44.4601 144.46H31.8682C31.955 145.588 32.3129 146.456 32.942 147.063C33.5927 147.649 34.3844 147.942 35.3172 147.942C36.7054 147.942 37.6707 147.356 38.213 146.185H44.1347C43.831 147.378 43.2779 148.451 42.4753 149.406C41.6944 150.36 40.7075 151.109 39.5144 151.651C38.3214 152.193 36.9874 152.464 35.5124 152.464C33.7337 152.464 32.1502 152.085 30.762 151.326C29.3737 150.566 28.2892 149.482 27.5083 148.072C26.7274 146.662 26.3369 145.013 26.3369 143.126C26.3369 141.239 26.7165 139.591 27.4757 138.181C28.2566 136.771 29.3412 135.686 30.7294 134.927C32.1177 134.168 33.712 133.788 35.5124 133.788C37.2694 133.788 38.8312 134.157 40.1977 134.894C41.5643 135.632 42.6272 136.684 43.3864 138.05C44.1672 139.417 44.5577 141.011 44.5577 142.833ZM38.8637 141.369C38.8637 140.415 38.5383 139.656 37.8876 139.092C37.2369 138.528 36.4234 138.246 35.4473 138.246C34.5146 138.246 33.7229 138.517 33.0721 139.059C32.4431 139.601 32.0526 140.371 31.9008 141.369H38.8637ZM48.0135 143.094C48.0135 141.228 48.3605 139.591 49.0547 138.181C49.7705 136.771 50.7357 135.686 51.9505 134.927C53.1652 134.168 54.5209 133.788 56.0176 133.788C57.2974 133.788 58.4145 134.048 59.3689 134.569C60.345 135.09 61.0934 135.773 61.614 136.619V134.048H67.1778V152.204H61.614V149.634C61.0717 150.48 60.3125 151.163 59.3364 151.684C58.3819 152.204 57.2648 152.464 55.985 152.464C54.51 152.464 53.1652 152.085 51.9505 151.326C50.7357 150.545 49.7705 149.449 49.0547 148.039C48.3605 146.608 48.0135 144.959 48.0135 143.094ZM61.614 143.126C61.614 141.738 61.2235 140.643 60.4426 139.84C59.6834 139.037 58.7507 138.636 57.6444 138.636C56.5382 138.636 55.5946 139.037 54.8137 139.84C54.0545 140.621 53.6749 141.705 53.6749 143.094C53.6749 144.482 54.0545 145.588 54.8137 146.413C55.5946 147.215 56.5382 147.616 57.6444 147.616C58.7507 147.616 59.6834 147.215 60.4426 146.413C61.2235 145.61 61.614 144.515 61.614 143.126ZM78.3937 128.127V152.204H72.8298V128.127H78.3937ZM94.1716 147.486V152.204H91.3409C89.3236 152.204 87.7509 151.716 86.623 150.74C85.495 149.742 84.9311 148.126 84.9311 145.892V138.669H82.7185V134.048H84.9311V129.623H90.4949V134.048H94.139V138.669H90.4949V145.957C90.4949 146.499 90.625 146.89 90.8853 147.128C91.1456 147.367 91.5795 147.486 92.1868 147.486H94.1716ZM110.058 133.853C112.14 133.853 113.81 134.547 115.068 135.936C116.327 137.302 116.956 139.189 116.956 141.597V152.204H111.424V142.345C111.424 141.131 111.11 140.187 110.481 139.515C109.852 138.842 109.006 138.506 107.943 138.506C106.88 138.506 106.034 138.842 105.405 139.515C104.776 140.187 104.461 141.131 104.461 142.345V152.204H98.8976V128.127H104.461V136.489C105.025 135.686 105.795 135.046 106.772 134.569C107.748 134.092 108.843 133.853 110.058 133.853ZM130.713 152.464C128.935 152.464 127.329 152.085 125.898 151.326C124.488 150.566 123.371 149.482 122.546 148.072C121.744 146.662 121.343 145.013 121.343 143.126C121.343 141.261 121.755 139.623 122.579 138.213C123.403 136.782 124.531 135.686 125.963 134.927C127.394 134.168 129 133.788 130.778 133.788C132.557 133.788 134.162 134.168 135.594 134.927C137.025 135.686 138.153 136.782 138.978 138.213C139.802 139.623 140.214 141.261 140.214 143.126C140.214 144.992 139.791 146.64 138.945 148.072C138.121 149.482 136.982 150.566 135.529 151.326C134.097 152.085 132.492 152.464 130.713 152.464ZM130.713 147.649C131.776 147.649 132.676 147.258 133.414 146.478C134.173 145.697 134.553 144.58 134.553 143.126C134.553 141.673 134.184 140.556 133.446 139.775C132.731 138.994 131.841 138.604 130.778 138.604C129.694 138.604 128.794 138.994 128.078 139.775C127.362 140.534 127.004 141.651 127.004 143.126C127.004 144.58 127.351 145.697 128.045 146.478C128.761 147.258 129.65 147.649 130.713 147.649ZM167.959 133.853C170.215 133.853 172.004 134.536 173.328 135.903C174.672 137.27 175.345 139.168 175.345 141.597V152.204H169.814V142.345C169.814 141.174 169.499 140.274 168.87 139.645C168.263 138.994 167.417 138.669 166.332 138.669C165.248 138.669 164.391 138.994 163.762 139.645C163.154 140.274 162.851 141.174 162.851 142.345V152.204H157.319V142.345C157.319 141.174 157.005 140.274 156.376 139.645C155.768 138.994 154.922 138.669 153.838 138.669C152.753 138.669 151.897 138.994 151.267 139.645C150.66 140.274 150.356 141.174 150.356 142.345V152.204H144.793V134.048H150.356V136.326C150.92 135.567 151.658 134.97 152.569 134.536C153.48 134.081 154.51 133.853 155.66 133.853C157.027 133.853 158.241 134.146 159.304 134.732C160.389 135.317 161.235 136.152 161.842 137.237C162.471 136.239 163.328 135.426 164.412 134.797C165.497 134.168 166.679 133.853 167.959 133.853ZM197.977 142.833C197.977 143.354 197.945 143.896 197.88 144.46H185.288C185.375 145.588 185.733 146.456 186.362 147.063C187.012 147.649 187.804 147.942 188.737 147.942C190.125 147.942 191.09 147.356 191.633 146.185H197.554C197.251 147.378 196.698 148.451 195.895 149.406C195.114 150.36 194.127 151.109 192.934 151.651C191.741 152.193 190.407 152.464 188.932 152.464C187.153 152.464 185.57 152.085 184.182 151.326C182.793 150.566 181.709 149.482 180.928 148.072C180.147 146.662 179.757 145.013 179.757 143.126C179.757 141.239 180.136 139.591 180.895 138.181C181.676 136.771 182.761 135.686 184.149 134.927C185.537 134.168 187.132 133.788 188.932 133.788C190.689 133.788 192.251 134.157 193.617 134.894C194.984 135.632 196.047 136.684 196.806 138.05C197.587 139.417 197.977 141.011 197.977 142.833ZM192.283 141.369C192.283 140.415 191.958 139.656 191.307 139.092C190.657 138.528 189.843 138.246 188.867 138.246C187.934 138.246 187.143 138.517 186.492 139.059C185.863 139.601 185.472 140.371 185.321 141.369H192.283ZM212.658 147.486V152.204H209.828C207.81 152.204 206.238 151.716 205.11 150.74C203.982 149.742 203.418 148.126 203.418 145.892V138.669H201.205V134.048H203.418V129.623H208.982V134.048H212.626V138.669H208.982V145.957C208.982 146.499 209.112 146.89 209.372 147.128C209.633 147.367 210.066 147.486 210.674 147.486H212.658ZM234.499 142.833C234.499 143.354 234.466 143.896 234.401 144.46H221.81C221.896 145.588 222.254 146.456 222.883 147.063C223.534 147.649 224.326 147.942 225.258 147.942C226.647 147.942 227.612 147.356 228.154 146.185H234.076C233.772 147.378 233.219 148.451 232.417 149.406C231.636 150.36 230.649 151.109 229.456 151.651C228.263 152.193 226.929 152.464 225.454 152.464C223.675 152.464 222.092 152.085 220.703 151.326C219.315 150.566 218.23 149.482 217.45 148.072C216.669 146.662 216.278 145.013 216.278 143.126C216.278 141.239 216.658 139.591 217.417 138.181C218.198 136.771 219.282 135.686 220.671 134.927C222.059 134.168 223.653 133.788 225.454 133.788C227.211 133.788 228.772 134.157 230.139 134.894C231.506 135.632 232.568 136.684 233.328 138.05C234.109 139.417 234.499 141.011 234.499 142.833ZM228.805 141.369C228.805 140.415 228.48 139.656 227.829 139.092C227.178 138.528 226.365 138.246 225.389 138.246C224.456 138.246 223.664 138.517 223.013 139.059C222.384 139.601 221.994 140.371 221.842 141.369H228.805ZM244.625 137.074C245.276 136.077 246.089 135.296 247.065 134.732C248.041 134.146 249.126 133.853 250.319 133.853V139.742H248.79C247.401 139.742 246.36 140.046 245.666 140.653C244.972 141.239 244.625 142.28 244.625 143.777V152.204H239.061V134.048H244.625V137.074Z" fill="#3864BC"/>
<rect opacity="0.7" x="85.9907" width="60.4259" height="69.7222" rx="16.2685" fill="#FA497E"/>
<rect opacity="0.7" x="113.879" y="30.2129" width="60.4259" height="69.7222" rx="16.2685" fill="#3864BC"/>
</svg>
