<svg width="18" height="18" viewBox="0 0 18 18" fill="none" xmlns="http://www.w3.org/2000/svg">
<path d="M1.5 4.5C1.5 3.67157 2.17157 3 3 3H6.75C6.94891 3 7.13968 3.07902 7.28033 3.21967L8.56066 4.5H15C15.8284 4.5 16.5 5.17157 16.5 6V13.5C16.5 14.3284 15.8284 15 15 15H3C2.17157 15 1.5 14.3284 1.5 13.5V4.5ZM6.43934 4.5L3 4.5V13.5H15V6H8.25C8.05109 6 7.86032 5.92098 7.71967 5.78033L6.43934 4.5ZM9 7.125C9.41421 7.125 9.75 7.46079 9.75 7.875V9.81434L9.96967 9.59467C10.2626 9.30178 10.7374 9.30178 11.0303 9.59467C11.3232 9.88756 11.3232 10.3624 11.0303 10.6553L9.53033 12.1553C9.23744 12.4482 8.76256 12.4482 8.46967 12.1553L6.96967 10.6553C6.67678 10.3624 6.67678 9.88756 6.96967 9.59467C7.26256 9.30178 7.73744 9.30178 8.03033 9.59467L8.25 9.81434V7.875C8.25 7.46079 8.58579 7.125 9 7.125Z" fill="#515E72"/>
</svg>
