<svg width="31" height="34" viewBox="0 0 31 34" fill="none" xmlns="http://www.w3.org/2000/svg">
<rect width="30.7794" height="33.4559" rx="7" fill="#EB534C" fill-opacity="0.08"/>
<path d="M11.267 18.6799C11.083 18.6799 10.959 18.6979 10.895 18.7159V19.8939C10.971 19.9119 11.066 19.9169 11.197 19.9169C11.676 19.9169 11.971 19.6749 11.971 19.2659C11.971 18.8999 11.717 18.6799 11.267 18.6799ZM14.754 18.6919C14.554 18.6919 14.424 18.7099 14.347 18.7279V21.3379C14.424 21.3559 14.548 21.3559 14.66 21.3559C15.477 21.3619 16.009 20.9119 16.009 19.9599C16.015 19.1299 15.53 18.6919 14.754 18.6919Z" fill="#EB534C"/>
<path d="M17 6H9C8.46957 6 7.96086 6.21071 7.58579 6.58579C7.21071 6.96086 7 7.46957 7 8V24C7 24.5304 7.21071 25.0391 7.58579 25.4142C7.96086 25.7893 8.46957 26 9 26H21C21.5304 26 22.0391 25.7893 22.4142 25.4142C22.7893 25.0391 23 24.5304 23 24V12L17 6ZM12.498 20.19C12.189 20.48 11.733 20.61 11.202 20.61C11.099 20.6111 10.9961 20.6051 10.894 20.592V22.018H10V18.082C10.4035 18.0218 10.8111 17.9944 11.219 18C11.776 18 12.172 18.106 12.439 18.319C12.693 18.521 12.865 18.852 12.865 19.242C12.864 19.634 12.734 19.965 12.498 20.19ZM16.305 21.545C15.885 21.894 15.246 22.06 14.465 22.06C13.997 22.06 13.666 22.03 13.441 22V18.083C13.8446 18.0241 14.2521 17.9963 14.66 18C15.417 18 15.909 18.136 16.293 18.426C16.708 18.734 16.968 19.225 16.968 19.93C16.968 20.693 16.689 21.22 16.305 21.545ZM20 18.77H18.468V19.681H19.9V20.415H18.468V22.019H17.562V18.03H20V18.77ZM17 13H16V8L21 13H17Z" fill="#EB534C"/>
</svg>
