<svg width="16" height="16" viewBox="0 0 16 16" fill="none" xmlns="http://www.w3.org/2000/svg">
<path d="M0.5 2.16667C0.5 1.24619 1.24619 0.5 2.16667 0.5H5.5H10.5H11.8215C12.2635 0.5 12.6874 0.675595 13 0.988155L15.2559 3.24408C15.4122 3.40036 15.5 3.61232 15.5 3.83333V13.8333C15.5 14.7538 14.7538 15.5 13.8333 15.5H10.5H5.5H2.16667C1.24619 15.5 0.5 14.7538 0.5 13.8333V2.16667ZM5.5 13.8333H10.5V8.83333H5.5V13.8333ZM12.1667 13.8333H13.8333V4.17851L12.1667 2.51184V3.83333C12.1667 4.75381 11.4205 5.5 10.5 5.5H5.5C4.57953 5.5 3.83333 4.75381 3.83333 3.83333V2.16667H2.16667V13.8333H3.83333V8.83333C3.83333 7.91286 4.57953 7.16667 5.5 7.16667H10.5C11.4205 7.16667 12.1667 7.91286 12.1667 8.83333V13.8333ZM5.5 2.16667V3.83333H10.5V2.16667H5.5Z" fill="#515E72"/>
</svg>
