<svg width="16" height="16" viewBox="0 0 16 16" fill="none" xmlns="http://www.w3.org/2000/svg">
<path d="M4.66634 2.66659C4.66634 1.93021 5.26329 1.33325 5.99967 1.33325H9.99967C10.7361 1.33325 11.333 1.93021 11.333 2.66659V3.99992H12.6595C12.6636 3.99988 12.6677 3.99988 12.6718 3.99992H13.9997C14.3679 3.99992 14.6663 4.2984 14.6663 4.66659C14.6663 5.03478 14.3679 5.33325 13.9997 5.33325H13.2871L12.7089 13.4282C12.659 14.126 12.0784 14.6666 11.3789 14.6666H4.62042C3.9209 14.6666 3.34031 14.126 3.29048 13.4282L2.71226 5.33325H1.99967C1.63148 5.33325 1.33301 5.03478 1.33301 4.66659C1.33301 4.2984 1.63148 3.99992 1.99967 3.99992H3.3275C3.33164 3.99988 3.33577 3.99988 3.33989 3.99992H4.66634V2.66659ZM5.99967 3.99992H9.99967V2.66659H5.99967V3.99992ZM4.04899 5.33325L4.62042 13.3333H11.3789L11.9504 5.33325H4.04899Z" fill="#FF8080"/>
</svg>
