<svg width="48" height="53" viewBox="0 0 48 53" fill="none" xmlns="http://www.w3.org/2000/svg">
<rect width="48" height="53" rx="5.33333" fill="#4382F7" fill-opacity="0.15"/>
<path d="M26.5107 10.0908H14.0348C13.2076 10.0908 12.4143 10.4246 11.8294 11.0188C11.2445 11.613 10.9159 12.4189 10.9159 13.2592V38.606C10.9159 39.4463 11.2445 40.2522 11.8294 40.8463C12.4143 41.4405 13.2076 41.7743 14.0348 41.7743H32.7486C33.5758 41.7743 34.3692 41.4405 34.9541 40.8463C35.539 40.2522 35.8676 39.4463 35.8676 38.606V19.5959L26.5107 10.0908ZM19.086 32.9758C19.086 34.8008 18.2267 35.4376 16.8435 35.4376C16.516 35.4376 16.0856 35.3806 15.8064 35.284L15.9639 34.1164C16.162 34.183 16.4146 34.2305 16.6953 34.2305C17.2942 34.2305 17.6669 33.9548 17.6669 32.9568V28.9283H19.0876V32.9758H19.086ZM24.2229 32.3976C23.7348 32.8618 23.0175 33.0725 22.1753 33.0725C21.9882 33.0725 21.8198 33.0614 21.6888 33.0424V35.3315H20.2759V29.0138C20.9137 28.9163 21.5584 28.8723 22.2034 28.8823C23.0814 28.8823 23.7083 29.0518 24.1278 29.394C24.5317 29.7172 24.8031 30.2495 24.8031 30.8768C24.8031 31.5041 24.5957 32.0364 24.2229 32.3976ZM30.9771 35.0384C30.5404 35.1905 29.7061 35.3996 28.8733 35.3996C27.724 35.3996 26.8912 35.105 26.3111 34.5347C25.7325 33.9834 25.4144 33.1485 25.4222 32.2075C25.4331 30.0784 26.9552 28.8633 29.023 28.8633C29.8355 28.8633 30.464 29.0265 30.7712 29.177L30.4734 30.335C30.1272 30.1829 29.6983 30.0594 29.0059 30.0594C27.8191 30.0594 26.9193 30.7437 26.9193 32.1315C26.9193 33.4511 27.7349 34.2305 28.9014 34.2305C29.2304 34.2305 29.4909 34.1925 29.6047 34.1339V32.7936H28.6316V31.6641H30.9771V35.0384ZM28.8499 17.2196L24.9512 13.2592L32.7486 21.18L28.8499 17.2196Z" fill="#4382F7"/>
<path d="M22.2778 29.9777C21.9878 29.9777 21.7913 30.0062 21.6899 30.0347V31.9246C21.81 31.9531 21.9613 31.9611 22.1687 31.9611C22.9235 31.9611 23.3913 31.5713 23.3913 30.9171C23.3913 30.3278 22.9905 29.9777 22.2778 29.9777Z" fill="#4382F7"/>
</svg>
