<svg width="16" height="17" viewBox="0 0 16 17" fill="none" xmlns="http://www.w3.org/2000/svg">
<path d="M5.4668 0.666748C5.92703 0.666748 6.30013 1.03984 6.30013 1.50008V2.33341H9.63346V1.50008C9.63346 1.03984 10.0066 0.666748 10.4668 0.666748C10.927 0.666748 11.3001 1.03984 11.3001 1.50008V2.33341H13.8001C14.7206 2.33341 15.4668 3.07961 15.4668 4.00008V14.8334C15.4668 15.7539 14.7206 16.5001 13.8001 16.5001H2.13346C1.21299 16.5001 0.466797 15.7539 0.466797 14.8334V4.00008C0.466797 3.07961 1.21299 2.33341 2.13346 2.33341H4.63346V1.50008C4.63346 1.03984 5.00656 0.666748 5.4668 0.666748ZM4.63346 4.00008H2.13346V6.50008H13.8001V4.00008H11.3001V4.83341C11.3001 5.29365 10.927 5.66675 10.4668 5.66675C10.0066 5.66675 9.63346 5.29365 9.63346 4.83341V4.00008H6.30013V4.83341C6.30013 5.29365 5.92703 5.66675 5.4668 5.66675C5.00656 5.66675 4.63346 5.29365 4.63346 4.83341V4.00008ZM13.8001 8.16675H2.13346V14.8334H13.8001V8.16675Z" fill="#515E72"/>
</svg>
